# xmcd CD database file
#
# Track frame offsets:
#	188
#	22208
#	43503
#
# Disc length: 905 seconds
#
# Revision: 3
# Processed by: cddbd v1.4PL0 Copyright (c) Steve Scherf et al.
# Submitted via: Gronk 1.4
#
DISCID=20038703
DTITLE=Richard Marx - Too late to say goodbye
DYEAR=1900
DGENRE=blues
TTITLE0=Too late to say goodbye
TTITLE1=Satisfied (live)
TTITLE2=Endless summer nights (live)
EXTD=
EXTT0=
EXTT1=
EXTT2=
PLAYORDER=
